Coordinates
version=1
nRows=14
nColumns=24
inDegrees=yes

Units are S.I. units (second, meters, Newtons, ...)
Angles are in degrees.

endheader
time	pelvis_tilt	pelvis_list	pelvis_rotation	pelvis_tx	pelvis_ty	pelvis_tz	hip_flexion_r	hip_adduction_r	hip_rotation_r	knee_angle_r	ankle_angle_r	subtalar_angle_r	mtp_angle_r	hip_flexion_l	hip_adduction_l	hip_rotation_l	knee_angle_l	ankle_angle_l	subtalar_angle_l	mtp_angle_l	lumbar_extension	lumbar_bending	lumbar_rotation
      2.58000000	     14.15492906	     -3.88394443	      4.03243488	      0.95844251	      0.91585810	      0.27621198	     14.16836217	      4.65419801	     -4.03412277	    -30.17360268	     13.45274659	      0.21652936	     29.06458644	    -17.19168963	     -6.72760892	     -2.03316236	    -52.53368603	     11.20221992	      2.09362770	     52.56552214	    -30.31861385	      9.09408767	      0.92848583
      2.58500000	     13.52237254	     -4.55279297	      4.44427932	      0.96451800	      0.91506851	      0.27650290	     14.50055046	      5.48033281	     -4.10165172	    -30.10695144	     13.72750557	     -0.44750350	     28.22762239	    -15.11805708	     -7.53349706	     -1.42756886	    -55.09351902	     11.26741876	      1.46735514	     48.89855717	    -29.59915667	      9.97791255	      0.80625780
      2.59000000	     12.83830634	     -5.17527502	      4.83527950	      0.97040782	      0.91427956	      0.27671956	     14.88949514	      6.23361605	     -4.12542540	    -30.01140553	     13.89842045	     -1.18587619	     27.93519742	    -12.95047107	     -8.20554642	     -0.71049098	    -57.59444922	     11.86148612	      0.90378733	     46.08959720	    -28.86310743	     10.79791140	      0.77766979
      2.59500000	     12.33400498	     -5.71883271	      5.13186090	      0.97632667	      0.91395484	      0.27693933	     15.03391699	      6.91045930	     -4.07750729	    -29.83694026	     14.09816668	     -1.78342558	     27.77001343	    -11.09066616	     -8.72619044	     -0.08018623	    -59.75817218	     12.42428608	      0.50979138	     46.15934495	    -28.33845285	     11.50897544	      0.74548952
      2.60000000	     11.86606016	     -6.20218082	      5.40766325	      0.98223464	      0.91382083	      0.27710237	     15.14152636	      7.49943431	     -4.05179131	    -29.68612104	     14.25778355	     -2.28390454	     27.52152756	     -9.29102607	     -9.13454212	      0.52395455	    -61.78708446	     12.91379256	      0.16092229	     46.38834799	    -27.84635687	     12.15199924	      0.82186111
      2.60500000	     11.53744966	     -6.51104154	      5.67378394	      0.98807583	      0.91407175	      0.27723406	     15.09645355	      7.87838458	     -4.12787880	    -29.58828426	     14.52457355	     -2.64999358	     27.28877050	     -7.69985413	     -9.32399085	      1.13197440	    -63.56311265	     13.15820700	     -0.58397244	     46.29942900	    -27.51160031	     12.62451150	      0.75609573
      2.61000000	     11.23052084	     -6.80386823	      5.99912257	      0.99397356	      0.91443998	      0.27737839	     15.01064399	      8.21920472	     -4.30564108	    -29.46368226	     14.84727418	     -2.88715517	     27.04144443	     -6.09837853	     -9.52858927	      1.74181579	    -65.27214978	     13.30064694	     -1.35060452	     46.06605640	    -27.18130689	     13.09115621	      0.60133476
      2.61500000	     10.94086319	     -7.04309232	      6.24804220	      0.99973451	      0.91491186	      0.27756976	     14.90735929	      8.49654417	     -4.47406705	    -29.36078760	     15.23894247	     -2.87786642	     26.47799232	     -4.53332579	     -9.67833875	      2.26376358	    -66.85380075	     13.47704928	     -1.84077065	     45.83877070	    -26.88190937	     13.46000702	      0.48490892
      2.62000000	     10.59744136	     -7.30453273	      6.43420746	      1.00561080	      0.91531518	      0.27798927	     14.85104532	      8.80623550	     -4.61471523	    -29.24764264	     15.46592447	     -2.78761561	     25.33794891	     -2.90999842	     -9.88924993	      2.66566541	    -68.37673528	     13.71536400	     -2.10297976	     45.64335376	    -26.52527679	     13.81165709	      0.43509158
      2.62500000	     10.29801888	     -7.54858268	      6.69981494	      1.01139576	      0.91581378	      0.27825870	     14.72883816	      9.06783775	     -4.84619163	    -29.07101970	     15.52012739	     -2.54168548	     24.15576477	     -1.29611585	    -10.07946941	      3.13183559	    -69.81358298	     14.02930346	     -2.21388890	     45.46199854	    -26.19845249	     14.16794354	      0.28576058
      2.63000000	     10.07135935	     -7.81217763	      6.88711554	      1.01722254	      0.91650287	      0.27861029	     14.48271676	      9.38367844	     -4.97842413	    -28.82553910	     15.98891320	     -2.12903750	     20.73687602	      0.20126550	    -10.29674743	      3.46905697	    -71.12168932	     14.31257050	     -2.19276750	     45.87500191	    -25.96531547	     14.51559267	      0.21723205
      2.63500000	      9.70945523	     -8.05016119	      7.14267923	      1.02293688	      0.91693361	      0.27877135	     14.40828541	      9.61326621	     -5.25237155	    -28.59738601	     16.24101570	     -1.96215085	     20.53129298	      1.89324767	    -10.42031604	      3.90958140	    -72.38109531	     14.50957315	     -2.25726776	     45.74681239	    -25.56323599	     14.86243744	      0.04368079
      2.64000000	      9.35981247	     -8.22273606	      7.30298783	      1.02862649	      0.91736887	      0.27913225	     14.32616537	      9.81177117	     -5.39509904	    -28.39960049	     16.56165671	     -1.95066291	     20.31814548	      3.51689358	    -10.45615806	      4.25774150	    -73.51455555	     14.87364441	     -2.30357819	     45.54228190	    -25.21361400	     15.08482846	     -0.02257781
      2.64500000	      9.13456313	     -8.39373713	      7.38664155	      1.03434119	      0.91808702	      0.27949716	     14.04367784	     10.04373459	     -5.45480100	    -28.08484622	     16.84216643	     -1.98261487	     20.22919928	      4.92725831	    -10.49004041	      4.50931561	    -74.45402325	     15.27137346	     -2.25311023	     45.40781344	    -25.01164762	     15.28605287	     -0.05426014
